Coordinates
version=1
nRows=7
nColumns=63
inDegrees=yes

Units are S.I. units (second, meters, Newtons, ...)
If the header above contains a line with 'inDegrees', this indicates whether rotational values are in degrees (yes) or radians (no).

endheader
time	pelvis_tilt	pelvis_list	pelvis_rotation	pelvis_tx	pelvis_ty	pelvis_tz	hip_flexion_r	hip_adduction_r	hip_rotation_r	knee_angle_r	knee_angle_r_beta	ankle_angle_r	subtalar_angle_r	mtp_angle_r	hip_flexion_l	hip_adduction_l	hip_rotation_l	knee_angle_l	knee_angle_l_beta	ankle_angle_l	subtalar_angle_l	mtp_angle_l	L5_S1_Flex_Ext	L5_S1_Lat_Bending	L5_S1_axial_rotation	L4_L5_Flex_Ext	L4_L5_Lat_Bending	L4_L5_axial_rotation	L3_L4_Flex_Ext	L3_L4_Lat_Bending	L3_L4_axial_rotation	L2_L3_Flex_Ext	L2_L3_Lat_Bending	L2_L3_axial_rotation	L1_L2_Flex_Ext	L1_L2_Lat_Bending	L1_L2_axial_rotation	L1_T12_Flex_Ext	L1_T12_Lat_Bending	L1_T12_axial_rotation	Abs_r3	Abs_r2	Abs_r1	Abs_t1	Abs_t2	neck_flexion	neck_bending	neck_rotation	arm_flex_r	arm_add_r	arm_rot_r	elbow_flex_r	pro_sup_r	wrist_flex_r	wrist_dev_r	arm_flex_l	arm_add_l	arm_rot_l	elbow_flex_l	pro_sup_l	wrist_flex_l	wrist_dev_l
      0.00000000	     -5.90407530	     -4.89275200	     63.69085122	      0.20920725	      0.94868416	      0.52167000	     14.65825664	      1.27959061	      5.46560862	     23.08274895	      0.40286997	     33.54429719	     -9.65779438	      0.00000000	      3.53911594	     -0.36342496	     13.41332811	      0.56061350	      0.00978455	     30.36875325	    -17.15331456	      0.00000000	      0.29840001	      0.07557686	      2.31440472	      0.55415865	      0.10051723	      2.45905501	      0.49024137	      0.18375759	      2.45905501	      0.34104137	      0.18375759	      2.02510413	      0.27709424	      0.15411634	      1.88045383	      0.17050576	      0.11706856	      1.73580354	      2.13144140	      0.85494061	     12.87202473	      0.00000000	      0.00000000	     28.08107164	     -4.27621711	     -7.83237317	     14.95041198	    -14.32171249	    128.10611502	      4.00760445	      3.32055990	     -3.43630868	      2.62880048	     19.95615009	    -12.46128956	    110.94362276	      8.09227649	      6.25781628	     -5.18538489	      0.63714116
      0.02000000	     -5.48540003	     -4.77085155	     63.84361400	      0.20861634	      0.94796182	      0.52243287	     13.94540582	      1.68107345	      6.49022331	     21.81600671	      0.38076115	     34.41803815	     -9.59650667	      0.00000000	      3.59550542	     -0.59443690	     11.48584926	      0.75180377	      0.01312145	     31.27343880	    -16.45745603	      0.00000000	      0.25172145	      0.12370620	      2.15891554	      0.46747190	      0.16452924	      2.29384776	      0.41355316	      0.30077924	      2.29384776	      0.28769244	      0.30077924	      1.88905110	      0.23374853	      0.25226167	      1.75411888	      0.14383363	      0.19162090	      1.61918666	      1.79802111	      1.39938923	     12.00724057	      0.00000000	      0.00000000	     28.08125536	     -4.49318807	     -6.79469056	     14.54229146	    -15.06591521	    117.06735842	      4.74705072	      2.32254770	     -4.07675627	      0.87372107	     18.73479881	    -13.53558740	    114.10054433	      8.32268600	      7.30967601	     -6.26313671	      1.37502298
      0.04000000	     -5.13308772	     -4.81645606	     64.06723244	      0.20821422	      0.94756664	      0.52278888	     13.35457233	      2.06648159	      7.27573046	     20.50706837	      0.35791586	     34.92084331	     -9.54706086	      0.00000000	      3.86642011	     -0.87890130	     10.18493742	      1.06852560	      0.01864929	     32.23559389	    -15.65544127	      0.00000000	      0.22736042	      0.16885176	      2.04791381	      0.42223104	      0.22457284	      2.17590842	      0.37353043	      0.41054616	      2.17590842	      0.25985022	      0.41054616	      1.79192458	      0.21112689	      0.34432250	      1.66392997	      0.12991374	      0.26155137	      1.53593536	      1.62401274	      1.91008484	     11.38988224	      0.00000000	      0.00000000	     28.07946889	     -4.67671645	     -6.07497279	     13.98760127	    -15.83078955	    113.18502986	      4.96722384	      2.07087110	     -4.49264589	     -0.55189615	     17.65422518	    -14.47897733	    116.61314624	      8.24969579	      7.54162702	     -6.75067522	      1.43087024
      0.06000000	     -4.89558037	     -4.99120498	     64.23582167	      0.20818441	      0.94732525	      0.52293985	     12.96946631	      2.39685330	      7.86039283	     19.34295048	      0.33759817	     35.36061328	     -9.31313714	      0.00000000	      4.25532575	     -1.15786732	      9.48805263	      1.35059441	      0.02357232	     33.04488426	    -15.18046648	      0.00000000	      0.22376746	      0.20145463	      2.01434913	      0.41555855	      0.26793466	      2.14024595	      0.36762756	      0.48981679	      2.14024595	      0.25574383	      0.48981679	      1.76255548	      0.20779046	      0.41080628	      1.63665866	      0.12786073	      0.31205322	      1.51076184	      1.59834859	      2.27889508	     11.20320553	      0.00000000	      0.00000000	     28.10688460	     -4.78392953	     -5.66562392	     13.13211854	    -16.64506243	    112.35000267	      4.93717713	      1.92710884	     -4.90032976	     -1.93870231	     16.61822952	    -15.46246630	    116.36331227	      8.21361894	      6.52863871	     -6.84753543	      0.68083166
      0.08000000	     -5.09291828	     -5.17094522	     64.31347643	      0.20809490	      0.94718338	      0.52244442	     12.72221436	      2.28184322	      8.50118646	     18.12153052	      0.31628037	     35.67670964	     -8.92172915	      0.00000000	      4.74269128	     -1.01861346	      9.24745555	      1.55365605	      0.02711641	     33.55732166	    -14.90658488	      0.00000000	      0.25262844	      0.19412041	      2.03803607	      0.46915628	      0.25818015	      2.16541333	      0.41504327	      0.47198438	      2.16541333	      0.28872905	      0.47198438	      1.78328156	      0.23459077	      0.39585035	      1.65590431	      0.14435189	      0.30069252	      1.52852705	      1.80449971	      2.19592896	     11.33494522	      0.00000000	      0.00000000	     28.14633044	     -4.91342827	     -5.35597005	     11.89924831	    -17.41554565	    112.21324610	      4.74725286	      2.00256934	     -5.30893910	     -2.74686413	     15.68040657	    -16.43797465	    115.46810483	      8.12661968	      5.46941948	     -6.55369905	     -0.24810557
      0.10000000	     -5.06755674	     -5.41863198	     64.33118453	      0.20829124	      0.94717509	      0.52183087	     12.45720506	      2.42307824	      9.00983228	     16.98907717	      0.29651533	     35.90126396	     -8.59039791	      0.00000000	      5.06257622	     -1.15091229	      8.88082728	      1.55602532	      0.02715777	     34.11642570	    -14.34623180	      0.00000000	      0.27974669	      0.21243239	      2.09478287	      0.51951758	      0.28253509	      2.22570680	      0.45959584	      0.51650812	      2.22570680	      0.31972249	      0.51650812	      1.83293501	      0.25977278	      0.43319214	      1.70201108	      0.15984726	      0.32905778	      1.57108715	      1.99820264	      2.40307774	     11.65055387	      0.00000000	      0.00000000	     28.18078900	     -4.77196928	     -4.89437256	     10.58428298	    -18.35314670	    112.34250998	      4.83677924	      2.23004556	     -5.97667798	     -3.42214170	     14.72986506	    -17.32048618	    113.02927009	      8.08448585	      3.67872548	     -5.87792373	     -1.78009889
      0.12000000	     -5.13325283	     -5.41603671	     64.45683367	      0.20801723	      0.94723798	      0.52137912	     12.35899815	      2.36002630	      9.33082631	     16.63796338	      0.29038724	     36.39857844	     -8.45161425	      0.00000000	      5.17003819	     -1.08833928	      9.16451283	      1.48905420	      0.02598890	     34.55947902	    -14.03387983	      0.00000000	      0.27191844	      0.21236633	      2.16637896	      0.50497973	      0.28244722	      2.30177765	      0.44673480	      0.51634750	      2.30177765	      0.31077558	      0.51634750	      1.89558159	      0.25250346	      0.43305743	      1.76018291	      0.15537419	      0.32895545	      1.62478422	      1.94228620	      2.40233043	     12.04874987	      0.00000000	      0.00000000	     28.22645786	     -4.77448872	     -4.65152756	      9.30553115	    -19.24673272	    112.53113813	      5.00193149	      2.42222134	     -6.13604413	     -3.33288106	     14.32009917	    -17.90420503	    112.35474142	      7.96131809	      3.27572338	     -5.68724735	     -2.10101689
